<svg width="116" height="50" viewBox="0 0 116 50" fill="none" xmlns="http://www.w3.org/2000/svg">
<g clip-path="url(#clip0_841_212445)">
<path d="M35.7412 30.6093L28.8803 12.1061L23.7904 18.1767L31.8512 37.9571L31.063 39.744C30.4663 41.1136 29.7307 42.0447 28.8563 42.5372C27.9819 43.0297 26.9134 43.2755 25.6508 43.2744C25.2407 43.2744 24.2611 43.2071 22.7197 43.0725L25.3875 49.6093C25.9808 49.6779 26.5774 49.7127 27.1746 49.7135C29.5924 49.7135 31.6241 49.08 33.2697 47.8129C34.9153 46.5458 36.3337 44.5581 37.5251 41.8497L51.1035 11.675H43.6425L35.7412 30.6093Z" fill="#1A111F"/>
<path d="M65.2381 11.0452C63.7694 11.0283 62.312 11.305 60.9508 11.8593C59.7052 12.3596 58.5711 13.1038 57.6145 14.0484V11.6782H51.1029V37.8H58.1968V22.55C58.1968 21.0372 58.6611 19.8144 59.5898 18.8817C60.5184 17.949 61.7002 17.4832 63.1351 17.4843C64.5712 17.4843 65.7359 17.9501 66.6295 18.8817C67.523 19.8133 67.9697 21.0361 67.9697 22.55V37.8016H75.011V21.5676C75.011 18.3967 74.135 15.8502 72.3831 13.9282C70.6312 12.0062 68.2495 11.0452 65.2381 11.0452Z" fill="#1A111F"/>
<path d="M97.4192 14.1587C95.5269 12.0839 92.9346 11.046 89.6424 11.045C87.2246 11.045 85.0615 11.6358 83.1532 12.8174C81.2384 14.0039 79.6847 15.6958 78.6617 17.7084C77.5746 19.7917 77.031 22.1358 77.031 24.7405C77.031 27.3452 77.5746 29.6897 78.6617 31.7741C79.6854 33.7864 81.2396 35.4777 83.1548 36.6635C85.0631 37.8452 87.2262 38.436 89.644 38.436C91.3173 38.4593 92.9756 38.117 94.5041 37.4328C95.9001 36.8114 97.1062 35.8279 97.9984 34.5834V37.8014H104.51V0.354248H97.4192V14.1587ZM95.5748 30.1635C94.3341 31.3647 92.6706 32.0238 90.9476 31.9969C89.0201 31.9969 87.4177 31.3323 86.1401 30.0033C84.8626 28.6742 84.2244 26.9114 84.2254 24.7148C84.2254 22.5524 84.8732 20.8072 86.1689 19.4792C87.4645 18.1513 89.06 17.4867 90.9556 17.4857C91.8132 17.4739 92.6644 17.6347 93.4591 17.9587C94.2538 18.2826 94.9759 18.7631 95.5827 19.3719C96.8783 20.6315 97.5261 22.4301 97.5261 24.7677C97.524 27.1416 96.8736 28.9403 95.5748 30.1635Z" fill="#1A111F"/>
<path d="M108.906 0.354248V5.46002L116 9.5738V0.354248H108.906Z" fill="#AF30F9"/>
<path d="M108.906 37.8011H116V9.57349L108.906 13.6873V37.8011Z" fill="#1A111F"/>
<path d="M26.4914 7.96022H23.4199H17.4349L7.09393 20.4121V0.283936H0V37.8016H7.09393V31.0307L13.3709 23.5644L19.1661 37.8128L26.8472 37.7823L20.4649 22.1429L18.5374 17.4218L26.4914 7.96022Z" fill="#1A111F"/>
</g>
<defs>
<clipPath id="clip0_841_212445">
<rect width="116" height="50" fill="white"/>
</clipPath>
</defs>
</svg>
