<?xml version="1.0" encoding="UTF-8"?>
<svg width="18" height="18" viewBox="0 1 14 14" xmlns="http://www.w3.org/2000/svg" xmlns:xlink="http://www.w3.org/1999/xlink" version="1.1">
 <!-- Generated by Pixelmator Pro 2.3.1 -->
 <path id="Path" d="M12.13 10.585 L8.542 6.984 12.138 3.429 C12.286 3.281 12.286 3.04 12.138 2.893 L11.115 1.865 C11.044 1.794 10.949 1.755 10.847 1.755 10.746 1.755 10.651 1.797 10.579 1.865 L7 5.409 3.415 1.868 C3.344 1.797 3.249 1.758 3.147 1.758 3.046 1.758 2.951 1.799 2.879 1.868 L1.86 2.896 C1.712 3.043 1.712 3.284 1.86 3.432 L5.455 6.987 1.87 10.585 C1.799 10.656 1.758 10.751 1.758 10.853 1.758 10.954 1.797 11.05 1.87 11.121 L2.893 12.149 C2.967 12.223 3.063 12.261 3.161 12.261 3.257 12.261 3.355 12.226 3.429 12.149 L7 8.562 10.574 12.146 C10.648 12.22 10.743 12.258 10.842 12.258 10.938 12.258 11.036 12.223 11.11 12.146 L12.132 11.118 C12.203 11.047 12.245 10.951 12.245 10.85 12.242 10.751 12.201 10.656 12.13 10.585 Z" fill="#7423a3" fill-opacity="1" stroke="none"/>
</svg>
