<?xml version="1.0" encoding="UTF-8"?>
<svg width="30px" height="30px" viewBox="0 0 24 24" xmlns="http://www.w3.org/2000/svg" xmlns:xlink="http://www.w3.org/1999/xlink" version="1.1">
 <!-- Generated by Pixelmator Pro 2.3.1 -->
 <path id="Path" d="M20.56 18.44 L15.89 13.77 C17.817 10.76 17.168 6.781 14.383 4.541 11.598 2.301 7.573 2.518 5.045 5.045 2.518 7.573 2.301 11.598 4.541 14.383 6.781 17.168 10.76 17.817 13.77 15.89 L18.44 20.56 C19.026 21.145 19.974 21.145 20.56 20.56 20.843 20.28 21.003 19.898 21.003 19.5 21.003 19.102 20.843 18.72 20.56 18.44 Z M5 10 C5 7.978 6.218 6.155 8.087 5.381 9.955 4.607 12.106 5.034 13.536 6.464 14.966 7.894 15.393 10.045 14.619 11.913 13.845 13.782 12.022 15 10 15 8.674 15 7.402 14.473 6.464 13.536 5.527 12.598 5 11.326 5 10 Z" fill="#ffffff" fill-opacity="1" stroke="none"/>
</svg>
